<svg viewBox="0 0 1200 800" xmlns="http://www.w3.org/2000/svg" fill-rule="evenodd" clip-rule="evenodd" stroke-linejoin="round" stroke-miterlimit="1.414"><path fill="#21468b" d="M-9.812-10.878h1219.776V811.88H-9.812z"/><path fill="#fff" d="M-9.812-10.878h1219.776v548.505H-9.812z"/><path fill="#ae1c28" d="M-9.812-10.878h1219.776v274.253H-9.812z"/><g><path d="M595.01 350.114c-121.237 0-231.39 14.576-312.938 38.33v202.9c81.549 23.754 191.7 38.33 312.939 38.33 138.76 0 262.987-19.093 346.43-49.187V399.303c-83.443-30.095-207.67-49.189-346.43-49.189M1066.417 514.975l-14.211-29.44c.073-1.119.13-2.238.13-3.36 0-33.376-34.705-64.136-93.096-88.763v177.526c27.245-11.492 49.348-24.317 65.156-38.125-4.652 18.707-20.564 56.553-33.25 83.168-20.85 38.066-28.4 71.203-27.432 72.844.617 1.033 7.73-9.94 18.219-27.72 24.41-34.782 70.664-101.183 79.909-118.097 10.472-19.174 4.575-28.033 4.575-28.033M146.73 484.12c0 6.428 1.294 12.76 3.789 18.97l-8.511 15.15s-6.818 8.845 5.188 27.507c10.59 16.455 63.635 80.867 91.632 114.598 12.026 17.293 20.179 27.945 20.893 26.916 1.124-1.633-7.476-34.1-31.36-71.14-11.143-19.896-24.453-46.253-32.441-65.722 22.303 14.116 51.483 26.92 86.152 37.94V379.904C198.528 406.452 146.73 443.337 146.73 484.12" fill="#a52b00" fill-rule="nonzero"/><path d="M1148.937 514.81l-93.415-68.812c-.88-3.064-1.756-6.127-2.662-9.162l30.683-44.45c3.13-4.523 3.765-10.399 1.73-15.556-2.036-5.13-6.49-8.81-11.762-9.71l-51.884-8.805c-2.008-4.102-4.116-8.142-6.23-12.15l21.797-49.903c2.243-5.087 1.769-10.995-1.203-15.608-2.961-4.636-7.99-7.344-13.35-7.133l-52.655 1.913a437.693 437.693 0 00-8.321-10.52l12.1-53.49c1.225-5.434-.322-11.119-4.103-15.065-3.762-3.932-9.23-5.559-14.426-4.283l-51.29 12.608a441.744 441.744 0 00-10.113-8.673l1.848-54.914c.198-5.559-2.393-10.842-6.844-13.925-4.446-3.104-10.093-3.573-14.956-1.266l-47.847 22.747c-3.854-2.21-7.728-4.4-11.644-6.517l-8.455-54.115c-.857-5.483-4.385-10.139-9.326-12.266-4.923-2.137-10.568-1.447-14.891 1.808l-42.66 32.007a445.391 445.391 0 00-12.691-4.01L707.98 54.242c-1.87-5.229-6.181-9.07-11.438-10.15-5.24-1.073-10.63.741-14.263 4.801l-35.906 40.171c-4.343-.5-8.686-.956-13.043-1.33L605.607 41.02c-2.81-4.732-7.77-7.612-13.116-7.612-5.334 0-10.304 2.88-13.09 7.612l-27.733 46.713c-4.358.375-8.722.831-13.056 1.331l-35.91-40.17c-3.636-4.06-9.047-5.875-14.268-4.803-5.255 1.092-9.573 4.922-11.433 10.151l-18.402 51.316a512.667 512.667 0 00-12.691 4.011l-42.644-32.007c-4.336-3.266-9.98-3.955-14.916-1.808-4.92 2.127-8.461 6.783-9.313 12.266l-8.461 54.115a508.241 508.241 0 00-11.653 6.517l-47.842-22.747c-4.858-2.316-10.53-1.838-14.954 1.266-4.445 3.083-7.042 8.366-6.84 13.925l1.835 54.914a511.197 511.197 0 00-10.112 8.673l-51.28-12.608c-5.21-1.265-10.67.351-14.44 4.283-3.795 3.946-5.331 9.631-4.113 15.064l12.079 53.49a509.791 509.791 0 00-8.293 10.521l-52.655-1.913c-5.314-.157-10.386 2.497-13.356 7.133-2.973 4.613-3.423 10.521-1.213 15.608l21.816 49.903c-2.12 4.008-4.224 8.048-6.25 12.15l-51.886 8.805c-5.27.888-9.71 4.566-11.76 9.71-2.04 5.157-1.37 11.033 1.73 15.555l30.7 44.451c-.24.784-.46 1.577-.7 2.364l-86.77 92.17s-13.29 10.423 6.07 34.916c17.07 21.605 104.724 107.252 151.018 152.123 19.554 22.78 32.948 36.886 34.349 35.666 2.208-1.94-9.387-43.385-47.902-92.012-29.685-43.629-68.215-110.733-59.175-118.467 0 0 10.27-13.045 30.893-22.435.753.603-.781-.598 0 0 0 0 435.152 200.732 838.797 3.396 46.108-8.273 74.023 16.43 74.023 16.43 9.628 5.58-15.301 74.578-35.798 120.254-27.881 51.863-31.97 92.332-29.604 93.736 1.49.89 11.634-14.545 26.104-39.109 35.702-49.748 103.19-144.586 115.545-167.62 14.006-26.119 0-33.439 0-33.439" fill="#f74c00" fill-rule="nonzero"/><path d="M447.995 643.612c-1.664-1.42-2.536-2.262-2.536-2.262L588 629.673c-116.273-153.39-209.424-31.198-219.34-17.536v31.475zM744.787 641.96c1.663-1.42 2.536-2.264 2.536-2.264l-136.984-10.023c116.328-159.687 203.869-32.852 213.783-19.19v31.477z" fill-rule="nonzero"/><path d="M963.76 489.673s-15.575 62.041-112.452 127.238l-27.166 6.367S736.26 463.02 611.759 643.612c0 0 38.802-22.59 142.822 4.92 0 0-47.85 73.24-144.242 70.99 0 0 92.373 110.82 232.94-49.253 0 0 148.595-57.463 160.646-180.596z" fill="#f74c00" fill-rule="nonzero"/><path d="M675.059 410.2s43.486-47.615 86.974 0c0 0 34.17 63.492 0 95.234 0 0-55.912 44.444-86.974 0 0 0-37.275-34.92 0-95.234" fill-rule="nonzero"/><path d="M725.405 427.864c0 18.541-10.93 33.572-24.408 33.572-13.477 0-24.406-15.03-24.406-33.572 0-18.54 10.929-33.574 24.406-33.574 13.478 0 24.408 15.033 24.408 33.574" fill="#fff" fill-rule="nonzero"/><path d="M480.967 397.198s74.596-33.028 94.956 40.691c0 0 21.327 85.926-61.26 90.776 0 0-105.31-20.283-33.696-131.467" fill-rule="nonzero"/><path d="M518.433 429.081c0 19.12-11.27 34.627-25.173 34.627-13.898 0-25.171-15.508-25.171-34.627 0-19.124 11.273-34.627 25.17-34.627 13.904 0 25.174 15.503 25.174 34.627" fill="#fff" fill-rule="nonzero"/><path d="M439.064 655.186c91.833-11.574 144.904-12.652 144.904-12.652C461.1 480.45 361.403 627.19 361.403 627.19c-24.982-8.932-50.453-43.613-69.477-75.59l-76.237-22.58c87.873 149.141 153.295 151.414 153.295 151.414 136.214 174.59 200.743 34.295 200.743 34.295-76.468-8.682-130.663-59.543-130.663-59.543" fill="#f74c00" fill-rule="nonzero"/></g></svg>